<svg id="图层_1" data-name="图层 1" xmlns="http://www.w3.org/2000/svg" viewBox="0 0 787.17 266.66"><defs><style>.cls-1{fill:#3e3e3e;}.cls-2{fill:#5b5b5b;}</style></defs><title>LOGO</title><path class="cls-1" d="M446.43,246.6a4.24,4.24,0,0,0-4-2.95H425.26a4.24,4.24,0,0,0-4,2.95l-29.29,91.64a2.11,2.11,0,0,0,2,2.76h14.33a2.11,2.11,0,0,0,2-1.47L433,268.42a.84.84,0,0,1,1.61,0l22.73,71.1a2.11,2.11,0,0,0,2,1.47h14.34a2.11,2.11,0,0,0,2-2.76Z" transform="translate(-28.83 -166.03)"/><path class="cls-1" d="M335.73,243.65h-22.2a4.23,4.23,0,0,0-4.23,4.23v88.89a4.23,4.23,0,0,0,4.23,4.23h22.2c33.84,0,54.07-11,54.35-49C389.8,253.9,369.57,243.65,335.73,243.65Zm-2.24,79.91h-4.64a2.11,2.11,0,0,1-2.11-2.11V263.2a2.11,2.11,0,0,1,2.11-2.11h4.64c18.08,0,38.44-.37,38.61,31.24C371.93,323.92,351.57,323.56,333.49,323.56Z" transform="translate(-28.83 -166.03)"/><path class="cls-1" d="M727.4,243.65H714.14a2.11,2.11,0,0,0-2.11,2.11V311L673.37,244.7a2.11,2.11,0,0,0-1.83-1H655.75a2.11,2.11,0,0,0-2.11,2.11v93.12a2.11,2.11,0,0,0,2.11,2.11H669a2.11,2.11,0,0,0,2.11-2.11V273.65l38.65,66.3a2.11,2.11,0,0,0,1.83,1h15.8a2.11,2.11,0,0,0,2.11-2.11V245.76A2.11,2.11,0,0,0,727.4,243.65Z" transform="translate(-28.83 -166.03)"/><path class="cls-1" d="M537.5,289.29v-.66c8.29-2.89,13.29-12.1,13.29-21,0-18.15-15.26-23.94-35.26-23.94h-26a4.23,4.23,0,0,0-4.23,4.23v88.89a4.23,4.23,0,0,0,4.23,4.23H518c21.44,0,37.75-9.08,37.75-28.68C555.78,299.16,548,291.79,537.5,289.29Zm-34.73-28.67a2.11,2.11,0,0,1,2.11-2.11h9.46c16.74,0,21,2.09,21,12,0,10.35-6.87,12.76-21.25,12.76h-9.2a2.11,2.11,0,0,1-2.11-2.11ZM516.32,326H504.88a2.11,2.11,0,0,1-2.11-2.11V299.83a2.11,2.11,0,0,1,2.11-2.11h11.44c13.42,0,20.52,2.93,20.52,13.42C536.84,323.94,528.76,326,516.32,326Z" transform="translate(-28.83 -166.03)"/><path class="cls-1" d="M815.5,337.52,778.21,293a2.12,2.12,0,0,1,0-2.71l36.18-43.17a2.11,2.11,0,0,0-1.62-3.47H793.94a2.11,2.11,0,0,0-1.62.76l-24.38,29.1V245.76a2.11,2.11,0,0,0-2.11-2.11H753.52a4.23,4.23,0,0,0-4.23,4.23v88.89a4.23,4.23,0,0,0,4.23,4.23h12.31a2.11,2.11,0,0,0,2.11-2.11V309.79l25.51,30.45a2.11,2.11,0,0,0,1.62.76h18.81A2.11,2.11,0,0,0,815.5,337.52Z" transform="translate(-28.83 -166.03)"/><path class="cls-1" d="M615.7,246.6a4.24,4.24,0,0,0-4-2.95H594.53a4.24,4.24,0,0,0-4,2.95l-29.3,91.64a2.11,2.11,0,0,0,2,2.76h14.33a2.11,2.11,0,0,0,2-1.47l22.73-71.1a.85.85,0,0,1,1.61,0l22.73,71.1a2.11,2.11,0,0,0,2,1.47H643a2.11,2.11,0,0,0,2-2.76Z" transform="translate(-28.83 -166.03)"/><path class="cls-2" d="M200.49,193.86c-9.57-24-39.35-36.08-63.75-21.53L57.32,219.69a58.41,58.41,0,0,0-28.49,50.17v24.93h0v80.27a30,30,0,0,0,24.45,29.49V264.35a20.84,20.84,0,0,1,10.17-17.9L167.21,185a7.93,7.93,0,0,1,12,6.81v9.85l2.92-1.74A44.09,44.09,0,0,1,200.49,193.86Z" transform="translate(-28.83 -166.03)"/><path class="cls-1" d="M200.49,193.86a44.09,44.09,0,0,0-18.37,6.08L102.7,247.3a58.41,58.41,0,0,0-28.49,50.17V322.4h0v80.27c0,16.58,7.87,30,24.45,30V412.47c11.57,4,30.46-.78,42.46-7.93l79.41-47.35A58.41,58.41,0,0,0,249,307V238C249,210.51,225.13,191.45,200.49,193.86Zm24.09,118.26A20.84,20.84,0,0,1,214.41,330L110.64,391.44a8,8,0,0,1-12-5.58V292a20.84,20.84,0,0,1,10.17-17.9l103.77-61.42a7.93,7.93,0,0,1,12,6.81Z" transform="translate(-28.83 -166.03)"/></svg>